<svg width="44" height="44" viewBox="0 0 44 44" fill="none" xmlns="http://www.w3.org/2000/svg">
<g clip-path="url(#clip0_35_1983)">
<path d="M40.1974 5.57276V38.2788C40.1916 38.3492 40.1589 38.4147 40.106 38.4615C40.084 38.8905 39.9036 39.2961 39.5999 39.5999C39.2962 39.9036 38.8906 40.0839 38.4616 40.106H28.869V26.0369H33.3455C33.6196 26.0369 33.6196 26.0369 33.711 25.7628L33.9851 23.4789C34.0764 22.5653 34.1678 21.6517 34.3505 20.7381C34.5332 19.8246 34.3505 20.4641 34.1678 20.4641H28.869V16.9011C28.869 16.627 28.9604 16.2616 28.9604 15.9875C29.0001 15.6135 29.1668 15.2643 29.4328 14.9983C29.6988 14.7323 30.048 14.5655 30.4221 14.5258L31.6098 14.3431H34.3505C34.5332 14.3431 34.5332 14.3431 34.5332 14.1604V9.50114C34.5332 9.40978 34.5332 9.31843 34.3505 9.31843H30.148C29.1066 9.28984 28.0733 9.50903 27.1332 9.95793C26.4378 10.192 25.7965 10.5632 25.2473 11.0497C24.698 11.5362 24.252 12.128 23.9357 12.79C23.4146 13.8057 23.163 14.9381 23.2048 16.0789C23.1135 17.4493 23.2048 18.911 23.2048 20.3727H18.5456C18.3629 20.3727 18.3629 20.4641 18.3629 20.5554V25.7628C18.3629 25.9455 18.3629 25.9455 18.5456 25.9455H23.2048V40.0146C23.152 40.0615 23.1193 40.1269 23.1135 40.1973H5.39009C4.9611 40.1753 4.55552 39.995 4.25177 39.6912C3.94803 39.3875 3.7677 38.9819 3.74565 38.5529C3.6543 38.5529 3.6543 38.4615 3.6543 38.3702V5.57276C3.6543 5.4814 3.6543 5.39004 3.74565 5.39004C3.7677 4.96105 3.94803 4.55547 4.25177 4.25172C4.55552 3.94798 4.9611 3.76765 5.39009 3.74561H38.4616C38.8906 3.76765 39.2962 3.94798 39.5999 4.25172C39.9036 4.55547 40.084 4.96105 40.106 5.39004L40.1974 5.57276Z" fill="white"/>
</g>
<defs>
<clipPath id="clip0_35_1983">
<rect width="43.8517" height="43.8517" fill="white"/>
</clipPath>
</defs>
</svg>
