<svg width="44" height="44" viewBox="0 0 44 44" fill="none" xmlns="http://www.w3.org/2000/svg">
<path d="M35.3623 10.9576V10.9589C35.3623 12.3211 34.2578 13.4242 32.897 13.4242C31.5362 13.4242 30.4317 12.3197 30.4317 10.9589C30.4317 9.5968 31.5362 8.49366 32.897 8.49366C34.2578 8.49503 35.3609 9.5968 35.3623 10.9576ZM21.9259 28.7764C18.1423 28.7764 15.0754 25.7096 15.0754 21.926C15.0754 18.1424 18.1423 15.0755 21.9259 15.0755C25.7094 15.0755 28.7763 18.1424 28.7763 21.926C28.7763 25.7082 25.7108 28.7751 21.9286 28.7751H21.9272L21.9259 28.7764ZM21.9259 11.3742C16.0977 11.3742 11.374 16.0992 11.374 21.926C11.374 27.7528 16.0991 32.4778 21.9259 32.4778C27.754 32.4778 32.4777 27.7528 32.4777 21.926V21.9246C32.4777 16.0978 27.754 11.3728 21.9259 11.3728H21.9245L21.9259 11.3742ZM21.9259 5.07596C27.4114 5.07596 28.0651 5.10337 30.2316 5.19793C31.6061 5.21437 32.9134 5.47474 34.1235 5.93518L34.0454 5.90915C35.846 6.61077 37.2438 8.00855 37.9304 9.76261L37.9468 9.80921C38.3798 10.9411 38.6375 12.2498 38.6539 13.6161V13.6229C38.7512 15.7909 38.7731 16.4418 38.7731 21.9287C38.7731 27.4157 38.7471 28.068 38.6471 30.2345C38.621 31.6104 38.3593 32.9177 37.9002 34.1277L37.9262 34.0482C37.5727 34.9746 37.0492 35.7639 36.3873 36.4135L36.386 36.4149C35.7378 37.0781 34.9484 37.6016 34.0673 37.9346L34.0234 37.9497C32.8874 38.3827 31.5746 38.6403 30.2029 38.6568H30.196C28.0144 38.7541 27.3717 38.776 21.8752 38.776C16.3759 38.776 15.7345 38.75 13.5543 38.6499C12.173 38.6239 10.8602 38.3621 9.64464 37.9031L9.72549 37.9291C8.79913 37.581 8.00979 37.0562 7.36572 36.3916L7.36435 36.3902C6.69424 35.7461 6.16802 34.9554 5.83777 34.0702L5.82406 34.0277C5.3924 32.893 5.13066 31.5816 5.10462 30.2112V30.2002C5.02788 28.0419 5.00047 27.3759 5.00047 21.9054C5.00047 16.4322 5.02788 15.7648 5.10462 13.5805C5.13066 12.2005 5.39103 10.8891 5.8501 9.67491L5.82406 9.75576C6.16254 8.82528 6.69013 8.03321 7.36298 7.39325L7.36572 7.39051C8.00705 6.71629 8.79775 6.19144 9.68438 5.86666L9.72686 5.85296C10.8547 5.41718 12.1579 5.15544 13.52 5.13215H13.5296C15.7126 5.05541 16.3553 5.02937 21.8505 5.02937L21.9259 5.07596ZM21.9259 1.37598C16.343 1.37598 15.6468 1.40201 13.4543 1.49931C11.6522 1.53768 9.94338 1.88575 8.36198 2.49008L8.46613 2.45582C7.04095 2.99986 5.8268 3.807 4.82644 4.82382L4.82506 4.82519C3.80414 5.82555 2.99837 7.04107 2.47763 8.39773L2.45433 8.46625C1.88426 9.9435 1.53619 11.6537 1.49919 13.4379V13.4544C1.39641 15.647 1.37585 16.3431 1.37585 21.926C1.37585 27.5088 1.40189 28.205 1.49919 30.3976C1.53756 32.1996 1.88563 33.9085 2.48996 35.4899L2.4557 35.3857C3.54651 38.1552 5.69662 40.3053 8.39487 41.3715L8.46613 41.3961C9.94338 41.9648 11.6536 42.3129 13.4378 42.3513H13.4543C15.6468 42.4541 16.343 42.4746 21.9259 42.4746C27.5087 42.4746 28.2049 42.4486 30.3975 42.3513C32.1995 42.3115 33.9083 41.9648 35.4897 41.3605L35.3856 41.3961C38.1551 40.3053 40.3052 38.1552 41.3713 35.457L41.396 35.3857C41.9661 33.9085 42.3128 32.1982 42.3512 30.414V30.3976C42.4539 28.205 42.4745 27.5088 42.4745 21.926C42.4745 16.3431 42.4485 15.647 42.3512 13.4544C42.3114 11.6523 41.9647 9.9435 41.3604 8.3621L41.396 8.46625C40.8506 7.04107 40.0448 5.82692 39.0266 4.82656L39.0253 4.82519C38.0249 3.80426 36.8094 2.99849 35.4527 2.47775L35.3842 2.45445C33.907 1.88438 32.1967 1.53631 30.4125 1.49931H30.3961C28.2035 1.39653 27.5074 1.37598 21.9245 1.37598H21.9259Z" fill="white"/>
</svg>
