<svg width="44" height="44" viewBox="0 0 44 44" fill="none" xmlns="http://www.w3.org/2000/svg">
<g clip-path="url(#clip0_35_1990)">
<path d="M43.8517 8.31179C42.244 9.03011 40.4995 9.50899 38.6866 9.73133C40.5509 8.61964 41.9704 6.85805 42.6374 4.7544C40.8929 5.78057 38.9774 6.5331 36.925 6.94357C35.2832 5.19908 32.9401 4.10449 30.3576 4.10449C25.3977 4.10449 21.3615 8.14077 21.3615 13.1006C21.3615 13.8018 21.4299 14.4859 21.6009 15.1529C14.127 14.7767 7.49105 11.2022 3.06141 5.74637C2.29178 7.08039 1.84711 8.61965 1.84711 10.2786C1.84711 13.3913 3.43767 16.1449 5.84917 17.7697C4.37833 17.7184 2.993 17.3079 1.7787 16.6409V16.7435C1.7787 21.1047 4.87431 24.7476 8.9961 25.5686C8.24357 25.7738 7.43974 25.8935 6.6188 25.8935C6.0373 25.8935 5.47291 25.8422 4.92562 25.7396C6.07151 29.3141 9.38946 31.9137 13.3231 31.9821C10.2446 34.3936 6.36226 35.8303 2.15496 35.8303C1.43664 35.8303 0.71832 35.7961 0 35.7106C3.98496 38.2589 8.70535 39.7468 13.7849 39.7468C30.3405 39.7468 39.3879 26.0303 39.3879 14.1439C39.3879 13.7505 39.3879 13.3571 39.3708 12.9809C41.1323 11.6982 42.6545 10.1247 43.8517 8.31179Z" fill="white"/>
</g>
<defs>
<clipPath id="clip0_35_1990">
<rect width="43.8517" height="43.8517" fill="white"/>
</clipPath>
</defs>
</svg>
