<svg width="74" height="74" viewBox="0 0 74 74" fill="none" xmlns="http://www.w3.org/2000/svg">
<path d="M71.4352 25.1882H64.4429C63.6662 23.3637 62.7091 21.6214 61.5858 19.9873C61.0973 19.2777 60.581 18.594 60.0367 17.9363C60.5718 16.7565 60.7795 15.2724 60.6511 13.4984C60.6336 13.2554 60.5287 13.0269 60.3559 12.8551C60.183 12.6833 59.9539 12.5799 59.7108 12.5638C57.882 12.4326 56.3632 12.6561 55.1676 13.2301C51.9873 10.7818 48.3475 8.99745 44.4643 7.98309C44.6793 6.95165 44.742 5.89428 44.6504 4.84467C44.633 4.60255 44.5289 4.37481 44.3573 4.20317C44.1856 4.03152 43.9579 3.92747 43.7158 3.91006C40.8485 3.70381 38.7399 4.37015 37.4476 5.89033C37.2499 6.12161 37.0742 6.37076 36.9226 6.63455C36.7712 6.36926 36.5955 6.11866 36.3976 5.886C35.0995 4.36582 32.9981 3.69949 30.1294 3.90573C29.8873 3.92314 29.6595 4.0272 29.4879 4.19884C29.3162 4.37048 29.2122 4.59822 29.1948 4.84034C29.1028 5.88653 29.165 6.94056 29.3794 7.96867C28.514 8.19174 27.6631 8.45376 26.8265 8.75472C23.5931 9.92185 20.5837 11.6346 17.929 13.8186C16.631 12.809 14.782 12.3893 12.4181 12.5595C12.1759 12.5769 11.9482 12.6809 11.7766 12.8526C11.6049 13.0242 11.5009 13.252 11.4834 13.4941C11.306 15.946 11.7719 17.8411 12.858 19.1479C9.42748 23.7974 7.41583 29.3404 7.06573 35.1079C6.71562 40.8754 8.04203 46.621 10.8849 51.6513C12.1538 53.8869 13.705 55.9499 15.5002 57.7897H12.17C11.245 57.7909 10.3583 58.1588 9.70422 58.8129C9.05017 59.4669 8.68222 60.3537 8.68107 61.2786C8.68107 61.6684 8.52623 62.0422 8.25061 62.3179C7.97499 62.5935 7.60117 62.7483 7.21138 62.7483H2.22249C1.95473 62.7483 1.69793 62.8547 1.5086 63.044C1.31926 63.2334 1.21289 63.4902 1.21289 63.7579C1.21289 64.0257 1.31926 64.2825 1.5086 64.4718C1.69793 64.6612 1.95473 64.7675 2.22249 64.7675H7.21138C8.13621 64.7664 9.02281 64.3984 9.67663 63.7443C10.3305 63.0902 10.6981 62.2035 10.6988 61.2786C10.6992 60.889 10.8542 60.5154 11.1297 60.2398C11.4053 59.9643 11.7789 59.8093 12.1685 59.8089H17.6637C23.0316 64.3356 29.8244 66.8234 36.8461 66.8343H36.9226C40.9175 66.8481 44.874 66.0547 48.5547 64.5017C52.2354 62.9488 55.5644 60.6682 58.342 57.7969C59.4571 56.6528 60.4791 55.4215 61.3983 54.1148C64.1105 50.2482 65.8705 45.7953 66.5347 41.1192C67.1989 36.4432 66.7486 31.6763 65.2203 27.2074H71.4352C71.7029 27.2074 71.9597 27.101 72.1491 26.9117C72.3384 26.7223 72.4448 26.4655 72.4448 26.1978C72.4448 25.93 72.3384 25.6732 72.1491 25.4839C71.9597 25.2945 71.7029 25.1882 71.4352 25.1882ZM57.3671 18.2219C56.3762 19.07 54.9815 19.1089 54.1681 19.0426C54.1031 18.2306 54.1421 16.8388 54.9801 15.8522C55.7113 14.9869 56.9473 14.5542 58.6637 14.5542C58.655 16.2575 58.2195 17.4907 57.3671 18.2219ZM38.9851 7.19848C39.7163 6.33311 40.9523 5.90042 42.6687 5.90042C42.66 7.61098 42.2244 8.84558 41.3706 9.57538C40.3841 10.4162 38.9865 10.4566 38.173 10.3845C38.1081 9.57682 38.1471 8.18501 38.9851 7.19848ZM34.8529 7.18983C35.701 8.18068 35.7399 9.57682 35.6721 10.3888C34.8587 10.4552 33.464 10.4162 32.4731 9.56817C31.6207 8.83837 31.1851 7.60377 31.175 5.89321C32.8842 5.90186 34.1216 6.33599 34.8529 7.18983ZM24.9573 14.5455C24.9487 16.2561 24.5145 17.4892 23.6593 18.2205C22.6684 19.07 21.2723 19.1075 20.4603 19.0411C20.3939 18.2277 20.4314 16.833 21.2795 15.8421C22.0122 14.9897 23.2468 14.5542 24.9516 14.547L24.9573 14.5455ZM17.1416 15.8436C17.9896 16.833 18.0286 18.2291 17.9622 19.0411C17.1502 19.1075 15.757 19.0685 14.7704 18.2291C13.9051 17.4993 13.4724 16.2618 13.4724 14.547C15.1757 14.5556 16.4103 14.9897 17.1416 15.8436ZM16.8531 44.388C16.8833 44.6151 16.8983 44.8439 16.8978 45.073C16.8926 46.3283 16.4369 47.5399 15.6137 48.4875C14.7905 49.4352 13.6545 50.0558 12.4123 50.2365C10.5183 46.7446 9.39066 42.8889 9.10465 38.9268C8.81863 34.9646 9.3808 30.987 10.7536 27.2593C12.2226 26.8475 13.7841 26.9099 15.2154 27.4379C16.6467 27.9658 17.8749 28.9321 18.7246 30.1991C19.5743 31.4662 20.0023 32.9691 19.9475 34.4937C19.8927 36.0184 19.3579 37.4867 18.4194 38.6895C17.7961 39.4894 17.3369 40.4046 17.0684 41.3826C16.7998 42.3605 16.7271 43.3819 16.8545 44.388H16.8531ZM38.4557 64.7733C38.4557 64.6651 38.4557 64.5815 38.4557 64.5382C38.4565 63.4029 38.9076 62.3142 39.7102 61.5111C40.5127 60.708 41.6011 60.2561 42.7365 60.2546C44.4167 60.2546 45.6311 61.1777 46.3552 61.9536C46.6306 62.2503 46.8791 62.5708 47.0979 62.9113C44.3352 63.9896 41.4174 64.6183 38.4557 64.7733ZM64.8136 36.9991C64.8103 42.7119 63.0411 48.284 59.7483 52.9523C56.9372 56.9487 53.1328 60.1431 48.7104 62.2204C48.3998 61.7027 48.0353 61.2192 47.6229 60.7782C46.2686 59.3286 44.535 58.5296 42.7393 58.5296C41.1452 58.5319 39.6171 59.1664 38.4901 60.2939C37.3631 61.4214 36.7294 62.9498 36.7279 64.544C36.7279 64.5916 36.7279 64.6882 36.7279 64.818C31.767 64.7854 26.9048 63.4286 22.6439 60.8878C22.0756 60.5474 21.5213 60.1878 20.9809 59.8089H24.5795C24.8472 59.8089 25.104 59.7026 25.2933 59.5132C25.4827 59.3239 25.5891 59.0671 25.5891 58.7993C25.5891 58.5316 25.4827 58.2748 25.2933 58.0854C25.104 57.8961 24.8472 57.7897 24.5795 57.7897H18.4209C16.456 56.0463 14.7461 54.0353 13.3411 51.8158C15.0018 51.4072 16.4534 50.4007 17.4183 48.9887C18.3832 47.5767 18.7936 45.8586 18.5709 44.163C18.4719 43.3837 18.5281 42.5925 18.7363 41.835C18.9445 41.0776 19.3005 40.3688 19.7838 39.7496C20.8407 38.3955 21.4868 36.7667 21.6455 35.0564C21.8043 33.3461 21.4689 31.6262 20.6792 30.1009C19.8896 28.5755 18.6789 27.3088 17.1907 26.451C15.7026 25.5932 13.9996 25.1805 12.2839 25.2617C12.0373 25.2733 11.7921 25.2964 11.5484 25.3281C12.3372 23.5952 13.3039 21.9488 14.4329 20.4156C15.3727 20.8724 16.407 21.1007 17.4516 21.082C17.6435 21.082 17.8238 21.082 17.9911 21.0647V24.5521C17.9911 24.8199 18.0974 25.0767 18.2868 25.266C18.4761 25.4554 18.7329 25.5617 19.0007 25.5617C19.2684 25.5617 19.5252 25.4554 19.7146 25.266C19.9039 25.0767 20.0103 24.8199 20.0103 24.5521V21.0257C20.3344 21.0636 20.6604 21.0823 20.9867 21.082C22.1405 21.082 23.7069 20.8397 24.9674 19.7681C26.4876 18.47 27.1539 16.3657 26.9463 13.4984C26.9289 13.2565 26.825 13.029 26.6537 12.8574C26.4823 12.6857 26.2549 12.5815 26.0131 12.5638C25.0426 12.481 24.0654 12.5266 23.1069 12.6994C24.5134 11.8916 25.9883 11.2092 27.5145 10.66C28.3727 10.3513 29.2453 10.0831 30.1279 9.86816C30.409 10.3379 30.7646 10.7588 31.1808 11.1143C32.4414 12.1859 34.0034 12.4282 35.163 12.4282C35.4413 12.4282 35.6981 12.4153 35.9202 12.3951V15.8984C35.9202 16.1661 36.0266 16.4229 36.2159 16.6123C36.4052 16.8016 36.662 16.908 36.9298 16.908C37.1976 16.908 37.4543 16.8016 37.6437 16.6123C37.833 16.4229 37.9394 16.1661 37.9394 15.8984V12.3951C38.1615 12.4153 38.4182 12.4282 38.6966 12.4282C39.8504 12.4282 41.4182 12.1859 42.6788 11.1143C43.0917 10.761 43.4452 10.3436 43.7259 9.87826C47.2519 10.7662 50.5706 12.334 53.4959 14.4936L53.4498 14.5455C53.2497 14.776 53.0715 15.0247 52.9176 15.2883C52.7662 15.023 52.5905 14.7724 52.3926 14.5397C51.0945 13.0196 48.9917 12.3532 46.1244 12.5595C45.8823 12.5769 45.6545 12.6809 45.4829 12.8526C45.3113 13.0242 45.2072 13.252 45.1898 13.4941C44.9821 16.3614 45.6484 18.4714 47.1686 19.7637C48.4292 20.8353 49.9912 21.0777 51.1493 21.0777C51.419 21.0777 51.6642 21.0647 51.8806 21.0459V24.5478C51.8806 24.8156 51.9869 25.0724 52.1763 25.2617C52.3656 25.451 52.6224 25.5574 52.8902 25.5574C53.1579 25.5574 53.4147 25.451 53.6041 25.2617C53.7934 25.0724 53.8998 24.8156 53.8998 24.5478V21.0459C54.1291 21.0676 54.3945 21.082 54.6844 21.082C55.8382 21.082 57.406 20.8397 58.6666 19.7681C58.7156 19.7262 58.7618 19.6815 58.8108 19.6368C59.1944 20.1214 59.5651 20.619 59.917 21.1325C60.8022 22.4169 61.5775 23.7736 62.2348 25.1882H59.0257C58.1011 25.1893 57.2147 25.5571 56.5609 26.2109C55.9072 26.8647 55.5394 27.7511 55.5382 28.6756C55.5375 29.0651 55.3823 29.4383 55.1068 29.7135C54.8313 29.9887 54.458 30.1435 54.0685 30.1439H49.0782C48.8104 30.1439 48.5536 30.2503 48.3643 30.4396C48.175 30.6289 48.0686 30.8857 48.0686 31.1535C48.0686 31.4213 48.175 31.6781 48.3643 31.8674C48.5536 32.0567 48.8104 32.1631 49.0782 32.1631H54.0685C54.9935 32.162 55.8802 31.794 56.5343 31.14C57.1883 30.4859 57.5563 29.5992 57.5574 28.6742C57.5582 28.285 57.7131 27.912 57.9883 27.6368C58.2635 27.3616 58.6365 27.2067 59.0257 27.2059H63.0771C64.2388 30.3397 64.827 33.657 64.8136 36.9991ZM51.6671 19.0383C50.8537 19.1046 49.459 19.0657 48.4681 18.2176C47.6143 17.4863 47.1802 16.2532 47.1701 14.5426C48.8806 14.5513 50.1152 14.9854 50.8465 15.8407C51.696 16.8344 51.7349 18.2306 51.6671 19.0383Z" fill="#7C6A0A"/>
<path d="M45.5519 36.2968C44.4784 36.2979 43.4492 36.7248 42.6899 37.4837C41.9307 38.2427 41.5035 39.2718 41.502 40.3453C41.502 40.6513 41.6235 40.9448 41.8399 41.1611C42.0563 41.3775 42.3498 41.4991 42.6558 41.4991C42.9618 41.4991 43.2553 41.3775 43.4717 41.1611C43.6881 40.9448 43.8096 40.6513 43.8096 40.3453C43.8227 39.892 44.0119 39.4618 44.3371 39.1458C44.6622 38.8298 45.0978 38.6531 45.5512 38.6531C46.0046 38.6531 46.4401 38.8298 46.7653 39.1458C47.0905 39.4618 47.2797 39.892 47.2928 40.3453C47.2928 40.6513 47.4143 40.9448 47.6307 41.1611C47.8471 41.3775 48.1406 41.4991 48.4466 41.4991C48.7526 41.4991 49.0461 41.3775 49.2625 41.1611C49.4789 40.9448 49.6004 40.6513 49.6004 40.3453C49.5993 39.2719 49.1724 38.2428 48.4134 37.4838C47.6544 36.7248 46.6253 36.2979 45.5519 36.2968Z" fill="#7C6A0A"/>
<path d="M41.4933 45.0774C41.1873 45.0774 40.8938 45.199 40.6774 45.4153C40.461 45.6317 40.3394 45.9252 40.3394 46.2312C40.3394 47.2682 39.9275 48.2628 39.1942 48.996C38.4609 49.7293 37.4664 50.1413 36.4294 50.1413C35.3924 50.1413 34.3978 49.7293 33.6646 48.996C32.9313 48.2628 32.5193 47.2682 32.5193 46.2312C32.5193 45.9252 32.3978 45.6317 32.1814 45.4153C31.965 45.199 31.6715 45.0774 31.3655 45.0774C31.0595 45.0774 30.766 45.199 30.5496 45.4153C30.3332 45.6317 30.2117 45.9252 30.2117 46.2312C30.2117 47.8803 30.8667 49.4618 32.0328 50.6278C33.1988 51.7939 34.7803 52.4489 36.4294 52.4489C38.0784 52.4489 39.6599 51.7939 40.826 50.6278C41.992 49.4618 42.6471 47.8803 42.6471 46.2312C42.6471 45.9252 42.5255 45.6317 42.3092 45.4153C42.0928 45.199 41.7993 45.0774 41.4933 45.0774Z" fill="#7C6A0A"/>
<path d="M31.3885 40.3452C31.3685 39.2845 30.9331 38.2741 30.1759 37.531C29.4187 36.788 28.4001 36.3717 27.3393 36.3717C26.2784 36.3717 25.2599 36.788 24.5027 37.531C23.7455 38.2741 23.3101 39.2845 23.29 40.3452C23.29 40.6512 23.4116 40.9447 23.628 41.1611C23.8444 41.3775 24.1379 41.4991 24.4439 41.4991C24.7499 41.4991 25.0434 41.3775 25.2598 41.1611C25.4761 40.9447 25.5977 40.6512 25.5977 40.3452C25.6107 39.892 25.8 39.4617 26.1251 39.1458C26.4503 38.8298 26.8859 38.6531 27.3393 38.6531C27.7927 38.6531 28.2282 38.8298 28.5534 39.1458C28.8786 39.4617 29.0678 39.892 29.0808 40.3452C29.0808 40.6512 29.2024 40.9447 29.4188 41.1611C29.6352 41.3775 29.9287 41.4991 30.2347 41.4991C30.5407 41.4991 30.8342 41.3775 31.0506 41.1611C31.2669 40.9447 31.3885 40.6512 31.3885 40.3452Z" fill="#7C6A0A"/>
<path d="M67.391 65.8638C65.7684 65.1917 65.4251 64.847 64.7588 63.2259C64.6441 62.9492 64.45 62.7128 64.201 62.5464C63.952 62.3801 63.6592 62.2913 63.3598 62.2913C63.0603 62.2913 62.7675 62.3801 62.5185 62.5464C62.2695 62.7128 62.0754 62.9492 61.9607 63.2259C61.2886 64.847 60.9439 65.1917 59.3228 65.8638C59.0461 65.9785 58.8097 66.1726 58.6433 66.4216C58.477 66.6706 58.3882 66.9634 58.3882 67.2628C58.3882 67.5623 58.477 67.8551 58.6433 68.1041C58.8097 68.3531 59.0461 68.5472 59.3228 68.6619C60.9093 69.3181 61.3031 69.7133 61.9593 71.2984C62.0737 71.5755 62.2678 71.8124 62.517 71.9791C62.7662 72.1458 63.0593 72.2347 63.359 72.2347C63.6588 72.2347 63.9519 72.1458 64.2011 71.9791C64.4503 71.8124 64.6444 71.5755 64.7588 71.2984C65.415 69.7119 65.8102 69.3167 67.3953 68.6604C67.672 68.5458 67.9084 68.3517 68.0748 68.1026C68.2411 67.8536 68.3299 67.5609 68.3299 67.2614C68.3299 66.9619 68.2411 66.6692 68.0748 66.4202C67.9084 66.1711 67.672 65.977 67.3953 65.8624L67.391 65.8638ZM63.3526 70.1748C62.6603 68.6561 61.9593 67.9551 60.4406 67.2628C61.9752 66.5677 62.6559 65.8869 63.3526 64.3509C64.0477 65.8869 64.7285 66.5677 66.2645 67.2628C64.7487 67.9551 64.0463 68.6532 63.3554 70.1748H63.3526Z" fill="#7C6A0A"/>
<path d="M3.98505 8.64505C5.57157 9.30129 5.96532 9.69504 6.62156 11.2816C6.73622 11.5582 6.93032 11.7947 7.17934 11.961C7.42836 12.1274 7.72111 12.2162 8.02058 12.2162C8.32006 12.2162 8.61281 12.1274 8.86183 11.961C9.11085 11.7947 9.30495 11.5582 9.41961 11.2816C10.0773 9.69504 10.471 9.30129 12.0576 8.64505C12.3341 8.5301 12.5704 8.3358 12.7366 8.08669C12.9029 7.83757 12.9916 7.54479 12.9916 7.24531C12.9916 6.94582 12.9029 6.65304 12.7366 6.40392C12.5704 6.15481 12.3341 5.96051 12.0576 5.84556C10.4364 5.1749 10.0917 4.83596 9.42105 3.20905C9.3061 2.9325 9.1118 2.6962 8.86269 2.52997C8.61357 2.36374 8.32079 2.27502 8.02131 2.27502C7.72182 2.27502 7.42904 2.36374 7.17992 2.52997C6.93081 2.6962 6.73651 2.9325 6.62156 3.20905C5.9509 4.83019 5.61196 5.1749 3.98505 5.84556C3.70851 5.96051 3.4722 6.15481 3.30597 6.40392C3.13974 6.65304 3.05103 6.94582 3.05103 7.24531C3.05103 7.54479 3.13974 7.83757 3.30597 8.08669C3.4722 8.3358 3.70851 8.5301 3.98505 8.64505ZM8.02347 4.33404C8.71721 5.87008 9.39797 6.5494 10.9326 7.24603C9.41384 7.93256 8.71288 8.63928 8.02058 10.158C7.32973 8.63928 6.63454 7.93256 5.1086 7.24603C6.64464 6.5494 7.3254 5.87008 8.02058 4.33404H8.02347Z" fill="#7C6A0A"/>
</svg>
