<svg width="91" height="91" viewBox="0 0 91 91" fill="none" xmlns="http://www.w3.org/2000/svg">
<path d="M20.8716 32.2928C20.8716 38.6672 23.3017 44.7096 27.7164 49.3071C31.2418 52.9798 33.189 57.8472 33.2015 63.0216H31.3518C30.3666 63.0216 29.5661 63.8222 29.5661 64.8074V75.3817C29.5661 76.3669 30.3666 77.1674 31.3518 77.1674H35.6351V81.9212C35.6351 82.6081 36.1908 83.1638 36.8777 83.1638H54.0093C54.6962 83.1638 55.2518 82.6081 55.2518 81.9212V77.1674H59.5352C60.5204 77.1674 61.3209 76.3669 61.3209 75.3817V74.0486C61.3209 73.3616 60.7653 72.806 60.0784 72.806C59.3914 72.806 58.8358 73.3616 58.8358 74.0486V74.6823H54.0093H36.8777H32.0512V71.3362H41.0439C41.7309 71.3362 42.2865 70.7806 42.2865 70.0936C42.2865 69.4067 41.7309 68.8511 41.0439 68.8511H32.0512V65.505H58.8358V66.4458C58.8358 67.1328 59.3914 67.6884 60.0784 67.6884C60.7653 67.6884 61.3209 67.1328 61.3209 66.4458V64.8074C61.3209 63.8222 60.5204 63.0216 59.5352 63.0216H56.4483C56.4465 63.0216 56.4447 63.0216 56.4429 63.0216H46.6852V46.5877L50.3099 42.2618C50.9809 42.3789 51.6537 42.4375 52.3211 42.4375C55.353 42.4375 58.2749 41.2464 60.4866 39.0346C63.3712 36.1501 64.5197 32.0584 63.554 28.0893C63.444 27.6384 63.0907 27.2852 62.6398 27.1751C58.6725 26.213 54.5809 27.3597 51.6963 30.2443C48.9644 32.9762 47.7911 36.7927 48.494 40.5594L45.4426 44.1984L42.3912 40.5577C43.0941 36.7891 41.9208 32.9744 39.1889 30.2425C36.3044 27.358 32.2145 26.2112 28.2454 27.1733C27.7927 27.2834 27.4413 27.6349 27.3312 28.0875C26.3673 32.0549 27.514 36.1465 30.3986 39.0328C32.6104 41.2446 35.5322 42.4357 38.5641 42.4357C39.2315 42.4357 39.9025 42.3771 40.5753 42.26L44.2 46.5859V63.0198H35.6866C35.6724 57.2028 33.4802 51.7231 29.5093 47.5853C25.5419 43.4529 23.3567 38.0228 23.3567 32.2928C23.3567 26.3639 25.6732 20.7989 29.8802 16.6221C34.0855 12.4453 39.6646 10.1714 45.5988 10.2087C57.3056 10.2885 67.1397 19.867 67.5178 31.5596C67.7095 37.5098 65.567 43.1635 61.4825 47.4752C58.5926 50.5266 56.5974 54.2668 55.7134 58.2892C55.566 58.9602 55.9903 59.6223 56.6613 59.7696C57.3305 59.917 57.9944 59.4927 58.1417 58.8217C58.9281 55.2413 60.7067 51.9077 63.2878 49.1847C67.832 44.3866 70.216 38.0991 70.003 31.4798C69.7971 25.1302 67.1593 19.1765 62.5759 14.7121C57.9944 10.2495 51.9714 7.76789 45.6166 7.72351C39.0185 7.68268 32.8092 10.2122 28.13 14.8594C23.449 19.5067 20.8716 25.6982 20.8716 32.2928ZM52.7667 77.1674V80.6786H38.1203V77.1674H52.7667ZM53.4537 31.9999C55.5359 29.9177 58.4186 28.9875 61.2908 29.4366C61.7416 32.3105 60.8115 35.1933 58.7293 37.2755C56.6471 39.3577 53.7643 40.2878 50.8904 39.837C50.4413 36.9648 51.3715 34.0821 53.4537 31.9999ZM32.1559 37.2755C30.0737 35.1933 29.1436 32.3105 29.5945 29.4366C32.4684 28.9875 35.3493 29.9177 37.4315 31.9999C39.5138 34.0821 40.4439 36.9648 39.9948 39.837C37.1227 40.2878 34.2381 39.3577 32.1559 37.2755Z" fill="#7C6A0A"/>
<path d="M54.2471 17.4244C53.6578 17.0729 52.8945 17.2646 52.543 17.854C52.1916 18.4433 52.3833 19.2066 52.9726 19.5581C53.0844 19.6255 53.1945 19.693 53.3046 19.7622C53.5105 19.8936 53.7412 19.9557 53.9684 19.9557C54.3803 19.9557 54.7832 19.7515 55.0193 19.377C55.3868 18.7965 55.2146 18.0297 54.6341 17.6622C54.5063 17.5824 54.3767 17.5025 54.2471 17.4244Z" fill="#7C6A0A"/>
<path d="M45.5616 14.9996H45.4426C41.4025 14.9996 37.4671 16.4286 34.366 19.022C33.8388 19.4623 33.7695 20.2451 34.2098 20.7723C34.4547 21.0669 34.808 21.2178 35.163 21.2178C35.4435 21.2178 35.7275 21.1238 35.96 20.9285C38.6174 18.7078 41.9847 17.4848 45.4391 17.4848H45.5491C46.4225 17.4901 47.2976 17.5753 48.1515 17.7333C48.826 17.8593 49.4757 17.4138 49.6017 16.7392C49.7277 16.0647 49.2822 15.415 48.6076 15.289C47.6083 15.1044 46.584 15.0067 45.5616 14.9996Z" fill="#7C6A0A"/>
<path d="M61.225 70.216C61.1948 70.1396 61.1558 70.0686 61.1114 70.0012C61.0652 69.932 61.0137 69.8698 60.9569 69.8112C60.8984 69.7544 60.8362 69.703 60.767 69.6568C60.6996 69.6124 60.6285 69.5734 60.5522 69.5432C60.4777 69.5113 60.3996 69.4882 60.3197 69.4722C59.9167 69.3905 59.4872 69.5237 59.1996 69.8112C59.141 69.8698 59.0895 69.932 59.0452 70.0012C58.999 70.0686 58.9617 70.1396 58.9298 70.216C58.8996 70.2905 58.8747 70.3686 58.8588 70.4485C58.8428 70.5284 58.8357 70.61 58.8357 70.6899C58.8357 71.0183 58.967 71.3378 59.1996 71.5686C59.4304 71.8011 59.7499 71.9325 60.0783 71.9325C60.1581 71.9325 60.2398 71.9254 60.3197 71.9094C60.3996 71.8934 60.4777 71.8686 60.5522 71.8384C60.6285 71.8065 60.6996 71.7692 60.767 71.723C60.8362 71.6787 60.8984 71.6272 60.9569 71.5686C61.1877 71.3378 61.3208 71.0183 61.3208 70.6899C61.3208 70.61 61.312 70.5284 61.296 70.4485C61.28 70.3686 61.2569 70.2905 61.225 70.216Z" fill="#7C6A0A"/>
<path d="M46.9638 68.851C46.2768 68.851 45.7212 69.4066 45.7212 70.0935C45.7212 70.7805 46.2768 71.3361 46.9638 71.3361H48.5951C49.2821 71.3361 49.8377 70.7805 49.8377 70.0935C49.8377 69.4066 49.2821 68.851 48.5951 68.851H46.9638Z" fill="#7C6A0A"/>
</svg>
