<svg width="45" height="45" viewBox="0 0 45 45" fill="none" xmlns="http://www.w3.org/2000/svg">
<path d="M5.5625 5.5625H9.27083L10.0125 9.27083M10.0125 9.27083H38.9375L31.5208 24.1042H12.9792M10.0125 9.27083L12.9792 24.1042M12.9792 24.1042L8.72756 28.3558C7.55944 29.5239 8.3864 31.5208 10.0385 31.5208H31.5208M31.5208 31.5208C30.5373 31.5208 29.5941 31.9115 28.8986 32.607C28.2032 33.3024 27.8125 34.2457 27.8125 35.2292C27.8125 36.2127 28.2032 37.1559 28.8986 37.8514C29.5941 38.5468 30.5373 38.9375 31.5208 38.9375C32.5043 38.9375 33.4476 38.5468 34.143 37.8514C34.8385 37.1559 35.2292 36.2127 35.2292 35.2292C35.2292 34.2457 34.8385 33.3024 34.143 32.607C33.4476 31.9115 32.5043 31.5208 31.5208 31.5208ZM16.6875 35.2292C16.6875 36.2127 16.2968 37.1559 15.6014 37.8514C14.9059 38.5468 13.9627 38.9375 12.9792 38.9375C11.9957 38.9375 11.0524 38.5468 10.357 37.8514C9.66153 37.1559 9.27083 36.2127 9.27083 35.2292C9.27083 34.2457 9.66153 33.3024 10.357 32.607C11.0524 31.9115 11.9957 31.5208 12.9792 31.5208C13.9627 31.5208 14.9059 31.9115 15.6014 32.607C16.2968 33.3024 16.6875 34.2457 16.6875 35.2292Z" stroke="#7C6A0A" stroke-width="3.70833" stroke-linecap="round" stroke-linejoin="round"/>
</svg>
