<svg width="51" height="51" viewBox="0 0 51 51" fill="none" xmlns="http://www.w3.org/2000/svg">
<path d="M10.8821 37.8335C15.3413 35.3131 20.3779 33.9922 25.5 34C30.8125 34 35.7999 35.3919 40.1179 37.8335M31.875 21.25C31.875 22.9408 31.2034 24.5623 30.0078 25.7578C28.8123 26.9534 27.1908 27.625 25.5 27.625C23.8092 27.625 22.1877 26.9534 20.9922 25.7578C19.7966 24.5623 19.125 22.9408 19.125 21.25C19.125 19.5592 19.7966 17.9377 20.9922 16.7422C22.1877 15.5466 23.8092 14.875 25.5 14.875C27.1908 14.875 28.8123 15.5466 30.0078 16.7422C31.2034 17.9377 31.875 19.5592 31.875 21.25ZM44.625 25.5C44.625 28.0115 44.1303 30.4985 43.1692 32.8188C42.2081 35.1392 40.7993 37.2475 39.0234 39.0234C37.2475 40.7993 35.1392 42.2081 32.8188 43.1692C30.4985 44.1303 28.0115 44.625 25.5 44.625C22.9885 44.625 20.5015 44.1303 18.1812 43.1692C15.8608 42.2081 13.7525 40.7993 11.9766 39.0234C10.2007 37.2475 8.79192 35.1392 7.8308 32.8188C6.86968 30.4985 6.375 28.0115 6.375 25.5C6.375 20.4277 8.38995 15.5632 11.9766 11.9766C15.5632 8.38995 20.4277 6.375 25.5 6.375C30.5723 6.375 35.4368 8.38995 39.0234 11.9766C42.61 15.5632 44.625 20.4277 44.625 25.5Z" stroke="#7C6A0A" stroke-width="4.25" stroke-linecap="round" stroke-linejoin="round"/>
</svg>
