<svg width="18" height="18" viewBox="0 0 18 18" fill="none" xmlns="http://www.w3.org/2000/svg">
<path d="M2.37198 5.51932C2.53246 5.13189 2.76768 4.77987 3.06421 4.48334C3.36074 4.18681 3.71276 3.95159 4.10019 3.79111C4.48762 3.63063 4.90287 3.54803 5.32222 3.54803C5.74157 3.54803 6.15682 3.63063 6.54425 3.79111C6.93168 3.95159 7.2837 4.18681 7.58023 4.48334L8.51551 5.41862L9.45079 4.48334C10.0496 3.88448 10.8619 3.54804 11.7088 3.54804C12.5557 3.54804 13.3679 3.88448 13.9668 4.48334C14.5657 5.0822 14.9021 5.89443 14.9021 6.74135C14.9021 7.58827 14.5657 8.4005 13.9668 8.99936L8.51551 14.4507L3.06421 8.99936C2.76768 8.70283 2.53246 8.35081 2.37198 7.96338C2.2115 7.57595 2.12891 7.1607 2.12891 6.74135C2.12891 6.322 2.2115 5.90675 2.37198 5.51932Z" stroke="white" stroke-width="1.41924" stroke-linecap="round" stroke-linejoin="round"/>
</svg>
